PathFileType	4	(X/Y/Z)	C:/Users/beibeiliu/ov580/test_trc\sequence.14_training_dense_right.trc
DataRate	CameraRate	NumFrames	NumMarkers	Units	OrigDataRate	OrigDataStartFrame	OrigNumFrames
120	120	14	19	mm	120	192	383
Frame#	Time	ThumbCMC			ThumbMCP			ThumbIP			ThumbTip			IndexMCP			IndexPIP			IndexTip			MiddleMCP			MiddlePIP			MiddleTip			RingMCP			RingPIP			RingTip			PinkyMCP			PinkyPIP			PinkyTip			BackHand1			BackHand2			BackHand3	
		X0	Y0	Z0	X1	Y1	Z1	X2	Y2	Z2	X3	Y3	Z3	X4	Y4	Z4	X5	Y5	Z5	X6	Y6	Z6	X7	Y7	Z7	X8	Y8	Z8	X9	Y9	Z9	X10	Y10	Z10	X11	Y11	Z11	X12	Y12	Z12	X13	Y13	Z13	X14	Y14	Z14	X15	Y15	Z15	X16	Y16	Z16	X17	Y17	Z17	X18	Y18	Z18	
191	1.59167	224.716	7.38693	-22.1795	196.744	15.3643	-14.1974	166.879	6.55963	-12.8513	152.882	-7.19715	-6.32164	169.499	-3.3475	-44.4099	155.337	7.34987	-26.1429	161.497	16.5759	-2.23084	162.664	-19.5895	-36.8087	146.673	-9.56847	-19.1079	148.824	5.61311	8.34223	168.039	-33.2717	-24.5068	157.498	-15.4372	-5.9991	167.587	-0.297101	13.5185	174.039	-46.6262	-11.081	165.59	-28.5393	4.18685	176.707	-6.04201	10.5415	217.674	-43.0817	-34.0429	242.946	-39.1337	-21.7993	229.453	-21.0984	-39.0667	
192	1.6	221.027	7.8769	-21.0706	190.269	20.3277	-8.24535	165.771	11.1462	-5.65589	147.453	2.99851	3.43365	167.776	1.40413	-46.8344	151.584	7.41888	-27.545	160.18	19.1513	0.636021	157.883	-18.6284	-37.8052	142.064	-3.39202	-18.9114	146.177	11.1624	7.10782	159.483	-26.0274	-22.6908	153.189	-13.8409	-2.41229	170.764	3.77401	14.1869	166.745	-39.4118	-12.1987	160.495	-22.4274	4.72782	173.176	-7.21426	15.3415	209.398	-44.2914	-30.3216	233.094	-41.6924	-22.6717	229.075	-21.209	-37.9774	
193	1.60833	219.557	5.09639	-17.9808	186.238	19.7316	-4.30187	168.369	21.2985	3.58627	144.59	14.1014	12.4475	166.11	1.06208	-48.0776	148.12	13.1991	-29.0072	160.149	22.1468	-1.44153	153.606	-13.8399	-40.4013	138.295	-0.936079	-23.4528	150.974	10.4591	3.60437	157.193	-28.5531	-23.689	150.442	-7.1246	-3.69753	168.42	4.95969	14.0469	162.309	-42.5066	-8.16868	157.536	-19.1908	7.62697	175.506	-5.10129	15.5052	200.44	-47.8386	-31.2741	229.352	-48.0161	-18.8951	223.673	-23.4741	-36.6946	
194	1.61667	215.205	7.6853	-18.9274	185.978	22.3805	-3.76899	163.126	25.5553	2.85613	144.239	20.0998	11.9667	157.695	2.54399	-46.3375	144.974	16.6119	-26.3399	156.685	18.1499	-1.80187	147.132	-12.9576	-38.7941	135.635	0.460029	-16.2311	155.044	9.69455	6.49455	150.768	-24.5755	-22.6602	144.911	-8.59346	-2.61014	161.409	2.30272	14.683	155.145	-34.3781	-10.6579	152.966	-20.5169	6.18903	170.158	-3.43745	10.1691	194.808	-44.0003	-31.1765	222.599	-47.3126	-21.7032	216.379	-23.0304	-39.7956	
195	1.625	209.612	5.13144	-20.5477	182.33	20.0777	-5.78848	163.635	25.1305	1.50936	142.062	19.7643	9.05006	154.813	5.29792	-45.9728	142.802	19.4124	-25.7814	161.328	22.2394	-0.642579	145.878	-7.88821	-39.114	135.056	5.41766	-14.9239	152.884	7.7232	8.86688	145.838	-23.6946	-21.174	141.127	-7.47637	-3.02338	159.471	4.29479	14.4983	150.518	-34.9769	-9.27903	149.922	-19.3087	7.27819	170.288	-0.0775871	9.84318	194.257	-41.2961	-30.8517	217.58	-46.2974	-20.6599	212.835	-23.8681	-37.4482	
196	1.63333	208.553	6.30778	-20.1156	180.183	20.6558	-6.9708	160.863	25.3927	-0.141489	138.416	24.2145	9.08976	151.442	7.15729	-47.3373	140.699	18.2972	-25.6336	157.856	20.7601	-1.49647	142.349	-7.86894	-36.9058	131.882	4.91415	-13.0008	152.236	9.77491	12.6959	144.603	-21.6173	-24.4767	138.571	-7.4696	-1.08677	156.751	2.46012	15.8412	150.66	-34.218	-12.059	149.838	-15.5058	7.38322	164.405	-2.36704	15.2094	188.506	-46.4469	-32.5692	217.432	-46.8303	-19.3288	208.874	-23.6287	-38.2538	
197	1.64167	208.272	6.8155	-20.5542	176.763	22.5329	-8.25881	155.882	26.1092	-1.93218	138.799	18.6632	8.22215	151.985	4.27735	-47.9999	138.38	16.0844	-23.7897	152.363	15.8871	-2.71288	145.662	-9.51001	-40.5299	129.399	3.17416	-19.1336	143.482	8.56035	13.9002	144.777	-22.2595	-25.4663	138.727	-8.22664	-0.904134	154.687	4.04153	11.9731	149.97	-40.2783	-10.4503	147.969	-17.1191	5.3117	163.627	-2.97107	9.47361	188.39	-43.2057	-32.6803	218.955	-42.2353	-21.5788	209.945	-20.4997	-42.1417	
198	1.65	206.835	5.9038	-22.938	179.943	19.2923	-9.10738	154.345	17.3911	-1.13073	133.307	7.44605	10.4461	152.602	1.14287	-50.7331	136.145	10.8437	-25.3676	152.94	19.1943	-1.50855	142.341	-17.9003	-37.2886	127.302	0.992255	-19.0631	131.596	12.0727	8.79274	145.652	-28.7923	-24.4912	138.215	-9.74679	-2.7759	153.609	1.71046	8.97941	150.409	-40.8843	-11.4677	147.846	-20.8232	5.26201	160.158	-5.4574	11.2631	192.464	-44.3315	-32.3939	216.977	-42.4163	-26.7835	209.986	-23.209	-40.444	
199	1.65833	201.933	5.31599	-25.3849	171.638	16.888	-8.6238	150.868	8.39424	-0.640283	136.104	-1.94302	10.4544	148.176	-5.89455	-47.4126	134.619	6.95982	-29.401	146.868	11.6577	-4.0872	142.266	-23.4855	-39.6375	126.628	-10.1668	-22.296	132.924	1.89645	8.75896	147.317	-34.6666	-25.6333	138.868	-15.6635	-6.4655	155.447	-4.15671	11.8631	156.29	-48.2623	-12.4311	148.65	-26.2556	3.55775	160.876	-8.45872	8.83689	193.339	-48.0074	-35.0803	222.771	-41.8845	-26.1556	212.043	-19.0461	-46.0746	
200	1.66667	201.388	6.41489	-23.68	174.525	11.2886	-6.28179	149.004	4.52912	1.62576	133.697	-7.76502	12.7406	149.732	-10.5575	-50.0418	132.845	-4.90285	-26.1358	146.768	2.17864	-3.53935	144.498	-32.8757	-41.1152	128.035	-24.5687	-20.5682	142.407	-11.2733	5.8606	150.904	-43.8232	-26.4619	141.355	-29.3854	-3.7437	156.014	-13.0343	13.6489	162.394	-55.8298	-13.0136	153.092	-34.2458	1.31384	161.964	-14.8392	9.47025	200.818	-43.3176	-40.5138	229.255	-39.5758	-27.503	211.947	-18.9698	-46.125	
201	1.675	200.311	9.72826	-23.2692	167.515	4.71894	-7.13709	150.407	-4.40011	-0.355195	134.621	-22.0666	9.13349	151.557	-19.1143	-51.1241	133.943	-19.7839	-25.9443	148.394	-8.21289	-5.00863	151.888	-42.38	-41.7913	133.641	-32.9466	-19.7509	156.881	-18.0955	2.78674	161.668	-53.4572	-28.8826	147.776	-44.5346	-6.10566	157.784	-21.9087	8.65217	173.903	-61.2641	-17.2926	161.035	-48.1368	0.0125199	168.3	-23.9589	7.49222	208.044	-46.0335	-40.2156	231.8	-31.3437	-33.5862	213.797	-10.9972	-45.2168	
202	1.68333	196.468	5.35429	-23.2274	169.3	-4.74435	-7.8406	150.206	-21.7508	-3.11069	143.868	-42.8311	1.63585	152.969	-29.7796	-52.2693	140.664	-33.8669	-27.5461	156.956	-20.9782	-7.13015	162.424	-47.3927	-45.0332	147.197	-47.5332	-17.083	165.751	-26.5818	-4.46142	170.43	-58.9559	-33.0732	159.402	-52.2298	-7.39667	169.912	-33.1658	4.67021	186.503	-67.7494	-19.5301	172.318	-54.227	-4.14706	179.616	-31.4982	5.43691	219.985	-40.5876	-43.6786	237.948	-27.3014	-32.5373	215.918	-10.0357	-46.1737	
203	1.69167	193.747	2.74906	-24.5655	169.802	-14.9511	-10.351	159.959	-38.6151	-8.22931	155.762	-61.3134	-3.58369	163.482	-41.8826	-53.607	150.874	-46.1768	-30.4654	169.51	-25.142	-13.1015	173.744	-60.0642	-44.7815	163.34	-56.9702	-19.1969	184.912	-32.8732	-12.1917	188.509	-67.9384	-33.7393	175.537	-57.6766	-9.25707	190.832	-35.5422	-2.84664	199.426	-69.8597	-21.8547	188.921	-55.4895	-5.85078	195.541	-34.52	-1.91147	228.825	-37.4785	-45.4957	248.673	-18.7135	-31.6311	219.286	-8.27132	-49.6204	
204	1.7	198.693	-1.57815	-24.0181	179.362	-28.0824	-14.7321	170.167	-51.1541	-13.0025	173.071	-72.8416	-8.70379	178.98	-54.6398	-55.284	167.322	-56.0143	-30.2705	185.773	-32.2484	-19.9464	192.365	-66.8672	-45.1905	183.473	-64.3475	-19.1157	196.028	-33.8309	-20.2196	202.394	-71.4611	-33.9719	195.361	-60.2366	-9.14088	204.41	-34.1119	-13.2307	218.529	-68.8601	-23.4096	208.295	-55.1706	-4.07622	211.376	-32.0456	-8.82298	238.345	-33.7446	-44.1614	250.484	-12.3629	-33.4166	223.593	-6.80265	-48.3364	
